<svg width="17" height="16" viewBox="0 0 17 16" fill="none" xmlns="http://www.w3.org/2000/svg">
<path d="M9.98134 2.66667C10.2219 2.66666 10.4579 2.73172 10.6645 2.85496C10.871 2.97819 11.0404 3.15501 11.1547 3.36667L11.4787 3.96667C11.5929 4.17833 11.7623 4.35514 11.9689 4.47838C12.1754 4.60161 12.4115 4.66667 12.652 4.66667H13.9833C14.337 4.66667 14.6761 4.80714 14.9261 5.05719C15.1762 5.30724 15.3167 5.64638 15.3167 6V12C15.3167 12.3536 15.1762 12.6928 14.9261 12.9428C14.6761 13.1929 14.337 13.3333 13.9833 13.3333H3.31668C2.96305 13.3333 2.62392 13.1929 2.37387 12.9428C2.12382 12.6928 1.98334 12.3536 1.98334 12V6C1.98334 5.64638 2.12382 5.30724 2.37387 5.05719C2.62392 4.80714 2.96305 4.66667 3.31668 4.66667H4.64801C4.88829 4.66668 5.12411 4.60176 5.33053 4.47878C5.53695 4.35579 5.7063 4.17931 5.82068 3.968L6.14668 3.36533C6.26105 3.15402 6.4304 2.97754 6.63682 2.85456C6.84324 2.73157 7.07906 2.66665 7.31934 2.66667H9.98134Z" stroke="white" stroke-width="1.33333" stroke-linecap="round" stroke-linejoin="round"/>
<path d="M8.64999 10.6667C9.75456 10.6667 10.65 9.77124 10.65 8.66667C10.65 7.5621 9.75456 6.66667 8.64999 6.66667C7.54542 6.66667 6.64999 7.5621 6.64999 8.66667C6.64999 9.77124 7.54542 10.6667 8.64999 10.6667Z" stroke="white" stroke-width="1.33333" stroke-linecap="round" stroke-linejoin="round"/>
</svg>
