<svg width="20" height="21" viewBox="0 0 20 21" fill="none" xmlns="http://www.w3.org/2000/svg">
<g clip-path="url(#clip0_73_11)">
<path d="M2.5 3.30005H4.16667L4.5 4.96672M4.5 4.96672H17.5L14.1667 11.6334H5.83333M4.5 4.96672L5.83333 11.6334M5.83333 11.6334L3.875 13.8417C3.7608 13.9582 3.68329 14.1056 3.65209 14.2657C3.62089 14.4258 3.63737 14.5916 3.69947 14.7424C3.76158 14.8933 3.86659 15.0225 4.00149 15.1143C4.13638 15.206 4.29523 15.2561 4.45833 15.2584H15.8333M7.5 15.2584V20.2584C7.5 20.7004 7.67559 21.1243 7.98816 21.4369C8.30072 21.7495 8.72464 21.925 9.16667 21.925C9.60869 21.925 10.0326 21.7495 10.3452 21.4369C10.6577 21.1243 10.8333 20.7004 10.8333 20.2584V15.2584H7.5Z" stroke="#0A0A0A" stroke-width="1.66667" stroke-linecap="round" stroke-linejoin="round"/>
</g>
<defs>
<clipPath id="clip0_73_11">
<rect width="20" height="20" fill="white" transform="translate(0 0.800049)"/>
</clipPath>
</defs>
</svg>
